<?xml version="1.0" encoding="utf-8"?><svg viewBox="0 0 512 512" xmlns="http://www.w3.org/2000/svg" xmlns:xlink="http://www.w3.org/1999/xlink"><style>:root>svg{display:none}:root>svg:target{display:block}</style><svg viewBox="0 0 96 96" id="email" xmlns="http://www.w3.org/2000/svg"><path d="M48.045 56.583 35.829 46.554 9.243 77.943h77.628L60.282 46.242 48.045 56.583zm41.733-38.526H6.333l41.724 35.094 41.721-35.094zM62.115 44.661l27.873 33.252V21.057L62.115 44.661zM6.012 21.057v56.856l27.873-33.252L6.012 21.057z"/></svg><svg viewBox="0 0 24 24" stroke-width="2" stroke-linecap="round" stroke-linejoin="round" id="external" xmlns="http://www.w3.org/2000/svg"><path d="M18 13v6a2 2 0 0 1-2 2H5a2 2 0 0 1-2-2V8a2 2 0 0 1 2-2h6M15 3h6v6M10 14 21 3"/></svg><svg viewBox="0 0 24 24" fill="none" stroke-linecap="round" stroke-linejoin="round" class="cfeather cfeather-folder" id="folder" xmlns="http://www.w3.org/2000/svg"><path d="M22 19a2 2 0 0 1-2 2H4a2 2 0 0 1-2-2V5a2 2 0 0 1 2-2h5l2 3h9a2 2 0 0 1 2 2z"/></svg><svg viewBox="0 0 24 24" fill="none" stroke-width="2" stroke-linecap="round" stroke-linejoin="round" id="github" xmlns="http://www.w3.org/2000/svg"><path d="M9 19c-5 1.5-5-2.5-7-3m14 6v-3.87a3.37 3.37 0 0 0-.94-2.61c3.14-.35 6.44-1.54 6.44-7A5.44 5.44 0 0 0 20 4.77 5.07 5.07 0 0 0 19.91 1S18.73.65 16 2.48a13.38 13.38 0 0 0-7 0C6.27.65 5.09 1 5.09 1A5.07 5.07 0 0 0 5 4.77a5.44 5.44 0 0 0-1.5 3.78c0 5.42 3.3 6.61 6.44 7A3.37 3.37 0 0 0 9 18.13V22"/></svg><svg viewBox="0 0 460.298 460.297" id="home" xmlns="http://www.w3.org/2000/svg"><path d="M230.149 120.939 65.986 256.274c0 .191-.048.472-.144.855-.094.38-.144.656-.144.852v137.041c0 4.948 1.809 9.236 5.426 12.847 3.616 3.613 7.898 5.431 12.847 5.431h109.63V303.664h73.097v109.64h109.629c4.948 0 9.236-1.814 12.847-5.435 3.617-3.607 5.432-7.898 5.432-12.847V257.981c0-.76-.104-1.334-.288-1.707L230.149 120.939z"/><path d="M457.122 225.438 394.6 173.476V56.989c0-2.663-.856-4.853-2.574-6.567-1.704-1.712-3.894-2.568-6.563-2.568h-54.816c-2.666 0-4.855.856-6.57 2.568-1.711 1.714-2.566 3.905-2.566 6.567v55.673l-69.662-58.245c-6.084-4.949-13.318-7.423-21.694-7.423-8.375 0-15.608 2.474-21.698 7.423L3.172 225.438c-1.903 1.52-2.946 3.566-3.14 6.136-.193 2.568.472 4.811 1.997 6.713l17.701 21.128c1.525 1.712 3.521 2.759 5.996 3.142 2.285.192 4.57-.476 6.855-1.998L230.149 95.817l197.57 164.741c1.526 1.328 3.521 1.991 5.996 1.991h.858c2.471-.376 4.463-1.43 5.996-3.138l17.703-21.125c1.522-1.906 2.189-4.145 1.991-6.716-.195-2.563-1.242-4.609-3.141-6.132z"/></svg><svg viewBox="0 0 512 512" id="portfolio" xmlns="http://www.w3.org/2000/svg"><path d="M502.246 271.574c-18.729 17.964-43.587 27.866-70.036 27.866H294.349v26.988c0 11.387-9.331 20.723-20.733 20.723h-35.233c-11.397 0-20.726-9.334-20.726-20.723V299.44H79.788c-26.445 0-51.308-9.902-70.034-27.866A98.643 98.643 0 0 1 0 260.722v188.132c0 19.121 15.642 34.749 34.749 34.749h442.506c19.105 0 34.744-15.629 34.744-34.749V260.722a98.228 98.228 0 0 1-9.753 10.852z"/><path d="M477.256 97.896H34.749C15.642 97.896 0 113.537 0 132.643v88.637c3.359 14.177 10.788 27.213 21.791 37.763 15.468 14.84 36.07 23.02 57.997 23.02h137.869V255.08c0-11.4 9.329-20.731 20.726-20.731h35.233c11.402 0 20.733 9.329 20.733 20.731v26.982H432.21c21.926 0 42.534-8.179 57.997-23.02 10.993-10.565 18.435-23.59 21.793-37.773v-88.627c0-19.105-15.639-34.746-34.744-34.746zm-282.012-34.75c0-.986.269-2.427 1.536-3.686a5.11 5.11 0 0 1 3.686-1.533h111.081c.978 0 2.422.274 3.679 1.533a5.11 5.11 0 0 1 1.533 3.686v17.375h29.53V63.146c-.003-8.891-3.392-17.782-10.171-24.568-6.789-6.789-15.685-10.181-24.573-10.181H200.466c-8.893 0-17.795 3.392-24.579 10.181-6.779 6.784-10.173 15.677-10.173 24.568v17.375h29.53V63.146z"/><path d="M273.618 329.773c1.825 0 3.348-1.526 3.348-3.349V255.08c0-1.823-1.523-3.359-3.348-3.359h-35.236c-1.818 0-3.359 1.536-3.359 3.359v71.344c0 1.823 1.541 3.349 3.359 3.349h35.236z"/></svg><svg viewBox="0 0 512 512" id="skills" xmlns="http://www.w3.org/2000/svg"><path d="M196.601 148h54.082c9.508-19.733-4.884-43-27.048-43-22.122 0-36.581 23.23-27.034 43z"/><path d="M223.635 75c38.214 0 66.875 35.449 58.582 73h76.418v-33c0-5.523-4.477-10-10-10h-20.183a108.328 108.328 0 0 0-9.497-22.894l14.281-14.281c3.905-3.905 3.905-10.237 0-14.142l-28.284-28.284c-3.905-3.905-10.237-3.905-14.142 0L276.529 39.68a108.33 108.33 0 0 0-22.894-9.498V10c0-5.523-4.477-10-10-10h-40c-5.523 0-10 4.477-10 10v20.183a108.279 108.279 0 0 0-22.894 9.498L156.46 25.399c-3.905-3.905-10.237-3.905-14.142 0l-28.284 28.284c-3.905 3.905-3.905 10.237 0 14.142l14.282 14.281A108.328 108.328 0 0 0 118.819 105H98.635c-5.523 0-10 4.477-10 10v33h76.452c-8.34-37.649 20.415-73 58.548-73zm250.391 242.66-58.87-88.03c-1.003-17.81-4.58-35.09-10.669-51.63H46.422c-33.78 91.708 12.41 197.467 109.033 231.75V497c0 8.28 6.71 15 15 15h171c8.28 0 15-6.72 15-15v-77h44c8.28 0 15-6.72 15-15v-64h46.1c11.961 0 19.131-13.38 12.471-23.34z"/></svg><svg viewBox="0 0 512 512" id="telegram" xmlns="http://www.w3.org/2000/svg"><path d="M470.435 45.423 16.827 221.249c-18.254 8.188-24.428 24.585-4.412 33.484l116.37 37.173 281.368-174.79c15.363-10.973 31.091-8.047 17.557 4.024L186.053 341.075l-7.591 93.076c7.031 14.371 19.905 14.438 28.117 7.295l66.858-63.589 114.505 86.187c26.595 15.826 41.066 5.613 46.788-23.394l75.105-357.47c7.798-35.705-5.5-51.437-39.4-37.757z"/></svg></svg>